<?xml version="1.0" encoding="UTF-8" standalone="no"?>
<!-- Created with Inkscape (http://www.inkscape.org/) -->
<svg
   xmlns:dc="http://purl.org/dc/elements/1.1/"
   xmlns:cc="http://creativecommons.org/ns#"
   xmlns:rdf="http://www.w3.org/1999/02/22-rdf-syntax-ns#"
   xmlns:svg="http://www.w3.org/2000/svg"
   xmlns="http://www.w3.org/2000/svg"
   xmlns:sodipodi="http://sodipodi.sourceforge.net/DTD/sodipodi-0.dtd"
   xmlns:inkscape="http://www.inkscape.org/namespaces/inkscape"
   width="744.09448819"
   height="1052.3622047"
   id="svg2"
   sodipodi:version="0.32"
   inkscape:version="0.46"
   sodipodi:docname="drawing.svg"
   inkscape:output_extension="org.inkscape.output.svg.inkscape">
  <defs
     id="defs4">
    <inkscape:perspective
       sodipodi:type="inkscape:persp3d"
       inkscape:vp_x="0 : 526.18109 : 1"
       inkscape:vp_y="0 : 1000 : 0"
       inkscape:vp_z="744.09448 : 526.18109 : 1"
       inkscape:persp3d-origin="372.04724 : 350.78739 : 1"
       id="perspective10" />
  </defs>
  <sodipodi:namedview
     id="base"
     pagecolor="#ffffff"
     bordercolor="#666666"
     borderopacity="1.0"
     gridtolerance="10000"
     guidetolerance="10"
     objecttolerance="10"
     inkscape:pageopacity="0.0"
     inkscape:pageshadow="2"
     inkscape:zoom="1"
     inkscape:cx="248.84736"
     inkscape:cy="698.53293"
     inkscape:document-units="px"
     inkscape:current-layer="layer1"
     showgrid="false"
     showguides="true"
     inkscape:guide-bbox="true"
     inkscape:window-width="1264"
     inkscape:window-height="880"
     inkscape:window-x="168"
     inkscape:window-y="-8">
    <sodipodi:guide
       orientation="0,1"
       position="682,696"
       id="guide3195" />
    <sodipodi:guide
       orientation="1,0"
       position="369,840"
       id="guide3197" />
  </sodipodi:namedview>
  <metadata
     id="metadata7">
    <rdf:RDF>
      <cc:Work
         rdf:about="">
        <dc:format>image/svg+xml</dc:format>
        <dc:type
           rdf:resource="http://purl.org/dc/dcmitype/StillImage" />
      </cc:Work>
    </rdf:RDF>
  </metadata>
  <g
     inkscape:label="Layer 1"
     inkscape:groupmode="layer"
     id="layer1">
    <path
       style="fill:#0000ff;fill-opacity:1;stroke:#000000;stroke-width:4;stroke-linejoin:round;stroke-miterlimit:4;stroke-dasharray:none;stroke-opacity:1"
       d="M 369,60.820814 L 317.83243,139.1193 C 333.76176,133.16951 351.00397,129.92618 369,129.92618 C 386.94586,129.92618 404.14084,133.15626 420.03305,139.07446 L 369,60.820814 z M 420.03305,139.07446 L 453.48704,190.37657 L 284.51298,190.15235 L 317.83243,139.1193 C 262.24318,159.88257 222.62756,213.49707 222.62756,276.29862 C 222.62756,290.15262 224.54349,303.55468 228.14344,316.25507 C 239.30879,313.57412 250.64802,312.28228 261.91135,312.2639 C 277.32828,267.95865 319.46366,236.11795 369,236.11795 C 418.48659,236.11795 460.58874,267.8937 476.04382,312.12937 C 487.34175,312.03972 498.72775,313.26313 509.94625,315.85147 C 513.47372,303.26969 515.37244,290.00736 515.37244,276.29862 C 515.37244,213.4469 475.69222,159.80179 420.03305,139.07446 z M 509.94625,315.85147 C 506.98768,326.40414 502.87206,336.45188 497.74855,345.89728 C 529.82174,381.41999 537.03415,434.93681 511.82973,478.59215 C 486.41488,522.61194 435.85705,543.1059 388.73158,532.49523 C 383.40794,541.62334 377.07591,550.25768 369.76237,558.14628 C 379.45733,568.58054 390.8648,577.73872 403.84418,585.23236 C 458.27537,616.65821 524.57181,609.12434 570.3518,571.28573 L 509.1839,574.60422 L 593.85031,428.41116 L 621.38483,482.76268 C 631.19793,424.23935 604.60435,363.1272 550.21662,331.72642 C 537.31117,324.27546 523.753,319.03696 509.94625,315.85147 z M 621.38483,482.76268 C 618.57284,499.53278 612.75896,516.10302 603.76094,531.68803 C 594.788,547.22962 583.42322,560.48178 570.3518,571.28573 L 663.62835,566.2183 L 621.38483,482.76268 z M 369.76237,558.14628 C 362.46343,550.29078 356.16079,541.71905 350.83798,532.62976 C 303.67631,543.30604 253.043,522.74122 227.6053,478.68184 C 202.62421,435.41328 209.48319,382.48405 240.83444,346.97355 C 235.50384,337.33905 231.20638,327.06089 228.14344,316.25507 C 214.79979,319.45906 201.70522,324.60685 189.21842,331.81611 C 134.78723,363.24197 108.17101,424.46583 118.0502,483.03176 L 145.7641,428.41116 L 230.07175,574.82844 L 169.21777,571.50995 C 214.99391,609.27003 281.20312,616.76767 335.59085,585.36689 C 348.61869,577.84527 360.04395,568.62886 369.76237,558.14628 z M 169.21777,571.50995 C 156.10043,560.68965 144.6721,547.36274 135.67409,531.77772 C 126.70114,516.23614 120.87098,499.75391 118.0502,483.03176 L 75.80668,566.35283 L 169.21777,571.50995 z M 240.83444,346.97355 C 245.65035,355.67783 251.31567,363.86088 257.7408,371.36896 C 256.35146,364.281 255.63312,356.9778 255.63312,349.48484 C 255.63312,343.50837 256.08596,337.63322 256.97845,331.9058 C 251.01464,336.44854 245.66212,341.50537 240.83444,346.97355 z M 256.97845,331.9058 C 260.79442,328.99911 264.86809,326.29516 269.13131,323.83379 C 275.62041,320.08732 282.29893,317.07112 289.13195,314.73035 C 280.18523,313.06317 271.06726,312.24899 261.91135,312.2639 C 259.71233,318.58345 258.03361,325.13454 256.97845,331.9058 z M 289.13195,314.73035 C 307.40166,318.13484 324.95157,324.98068 340.79282,335.00007 C 349.54252,327.67594 359.29112,321.80874 369.62783,317.46587 C 344.50985,306.96471 315.85145,305.57718 289.13195,314.73035 z M 369.62783,317.46587 C 379.98429,321.79564 389.738,327.68066 398.50768,335.00007 C 414.38453,324.93349 431.98069,318.01012 450.30308,314.59582 C 437.74461,310.29372 424.76188,308.33058 411.91619,308.54181 C 397.36428,308.78111 382.9924,311.85088 369.62783,317.46587 z M 450.30308,314.59582 C 457.13609,316.93661 463.81463,319.95276 470.30372,323.69925 C 473.95144,325.80526 477.43147,328.08049 480.75249,330.51562 C 479.6853,324.19248 478.11292,318.05159 476.04382,312.12937 C 467.38469,312.1981 458.76898,313.01825 450.30308,314.59582 z M 480.75249,330.51562 C 481.79416,336.6875 482.36689,343.01812 482.36689,349.48484 C 482.36689,356.9778 481.64855,364.281 480.2592,371.36896 C 486.94661,363.55441 492.80949,355.00265 497.74855,345.89728 C 492.6854,340.28958 487.0268,335.11627 480.75249,330.51562 z M 480.2592,371.36896 C 468.43762,385.18302 454.08456,396.75467 437.926,405.40593 C 439.6104,416.82943 439.51481,428.34869 437.74662,439.57744 C 459.33223,423.07785 474.8372,399.02993 480.2592,371.36896 z M 437.74662,439.57744 C 428.98689,446.27318 419.23199,451.7416 408.73223,455.67661 C 409.06393,473.34006 406.22833,490.89239 400.39115,507.42716 C 420.82506,489.60762 433.68334,465.38105 437.74662,439.57744 z M 400.39115,507.42716 C 394.94748,512.17436 388.98729,516.41651 382.4982,520.16299 C 378.37785,522.54188 374.16936,524.67756 369.8969,526.48607 C 376.06217,529.07124 382.37159,531.06324 388.73158,532.49523 C 393.39966,524.49117 397.32476,516.11323 400.39115,507.42716 z M 408.73223,455.67661 C 408.49951,443.28465 406.72841,430.84049 403.2612,418.63506 C 392.2682,421.27715 380.79768,422.67106 369,422.67106 C 357.66594,422.67106 346.63639,421.39321 336.0393,418.94897 C 332.58995,431.22355 330.83846,443.76135 330.65796,456.21474 C 342.63316,460.52239 355.54893,462.85173 369,462.85173 C 382.97737,462.85173 396.36487,460.31155 408.73223,455.67661 z M 330.65796,456.21474 C 320.26829,452.47742 310.60168,447.22274 301.86779,440.78823 C 306.16046,466.0801 318.963,489.78094 339.04388,507.29263 C 333.27589,490.95383 330.40517,473.6567 330.65796,456.21474 z M 339.04388,507.29263 C 342.1391,516.06037 346.11112,524.55811 350.83798,532.62976 C 357.26336,531.17521 363.62718,529.11838 369.85205,526.48607 C 365.47133,524.6473 361.15847,522.51067 356.93683,520.07331 C 350.44773,516.32681 344.48756,512.03981 339.04388,507.29263 z M 301.86779,440.78823 C 299.93718,429.41334 299.7506,417.72652 301.3745,406.12344 C 284.67816,397.40212 269.88261,385.55719 257.7408,371.36896 C 263.29683,399.71363 279.4426,424.26697 301.86779,440.78823 z M 301.3745,406.12344 C 312.20047,411.77837 323.83914,416.13497 336.0393,418.94897 C 339.2741,407.43786 344.00366,396.14322 350.25501,385.31559 C 355.84062,375.64103 362.386,366.81501 369.67268,358.94703 C 361.01893,349.62338 351.27613,341.63062 340.79282,335.00007 C 330.89643,343.28407 322.2794,353.40621 315.45567,365.22525 C 307.94869,378.22774 303.33581,392.10959 301.3745,406.12344 z M 369.67268,358.94703 C 377.00283,366.84463 383.56686,375.683 389.18003,385.40528 C 395.35687,396.10389 400.03023,407.26122 403.2612,418.63506 C 415.48237,415.69777 427.10958,411.19701 437.926,405.40593 C 435.90029,391.66767 431.33919,378.06254 423.97936,365.31494 C 417.12706,353.44641 408.45608,343.30327 398.50768,335.00007 C 388.0331,341.64139 378.31583,349.61438 369.67268,358.94703 z"
       id="path3157"
       inkscape:export-filename="H:\DIG 2000\FINAL ASSIGNMENT\middle graphic.png"
       inkscape:export-xdpi="90"
       inkscape:export-ydpi="90" />
  </g>
</svg>
