<?xml version="1.0" encoding="utf-8"?>
<!-- Generator: Adobe Illustrator 14.0.0, SVG Export Plug-In . SVG Version: 6.00 Build 43363)  -->
<!DOCTYPE svg PUBLIC "-//W3C//DTD SVG 1.1//EN" "http://www.w3.org/Graphics/SVG/1.1/DTD/svg11.dtd">
<svg version="1.1" xmlns="http://www.w3.org/2000/svg" xmlns:xlink="http://www.w3.org/1999/xlink" x="0px" y="0px" width="800px"
	 height="600px" viewBox="0 0 800 600" enable-background="new 0 0 800 600" xml:space="preserve">
<g id="Layer_1">
	<rect x="4.12" y="3.805" fill="#FFFFFF" stroke="#000000" stroke-width="4" width="792.481" height="46.616"/>
	<rect x="4.12" y="78.007" fill="#FFFFFF" stroke="#000000" stroke-width="4" width="792.481" height="212.03"/>
	<rect x="111.64" y="294.053" fill="#FFFFFF" stroke="#000000" stroke-width="4" width="577.443" height="60.15"/>
	<rect x="241.458" y="366.211" fill="#FFFFFF" stroke="#000000" stroke-width="4" width="145.865" height="102.973"/>
	<rect x="406.12" y="366.211" fill="#FFFFFF" stroke="#000000" stroke-width="4" width="145.864" height="102.973"/>
	<rect x="406.12" y="486.21" fill="#FFFFFF" stroke="#000000" stroke-width="4" width="145.864" height="102.973"/>
	<rect x="241.458" y="486.21" fill="#FFFFFF" stroke="#000000" stroke-width="4" width="145.865" height="102.973"/>
	<rect x="77.549" y="366.211" fill="#FFFFFF" stroke="#000000" stroke-width="4" width="145.865" height="102.973"/>
	<rect x="77.549" y="485.399" fill="#FFFFFF" stroke="#000000" stroke-width="4" width="145.865" height="104.593"/>
	<rect x="4.12" y="52.007" fill="#FFFFFF" stroke="#000000" stroke-width="4" width="792.481" height="29.993"/>
	<rect x="4.12" y="265.978" fill="#FFFFFF" stroke="#000000" stroke-width="4" width="792.481" height="23.542"/>
	<text transform="matrix(1 0 0 1 10.9175 63.2031)" font-family="'MyriadPro-Regular'" font-size="12">Navigation(Secondary)</text>
	<rect x="519.955" y="56.681" fill="#FFFFFF" stroke="#000000" stroke-width="4" width="186.466" height="15.868"/>
	<rect x="494.85" y="82" fill="#FFFFFF" stroke="#000000" stroke-width="4" width="172.181" height="183.978"/>
</g>
<g id="Layer_2">
	<text transform="matrix(1 0 0 1 11.1577 15.8345)" font-family="'MyriadPro-Regular'" font-size="12">Navigation(Main)</text>
	<text transform="matrix(1 0 0 1 717.4062 66.2104)" font-family="'MyriadPro-Regular'" font-size="12">Search</text>
	<text transform="matrix(1 0 0 1 576.8047 31.1128)" font-family="'MyriadPro-Regular'" font-size="12">Login/Forgot PW/ Signup</text>
	<text transform="matrix(1 0 0 1 22.9473 30.1128)" font-family="'MyriadPro-Regular'" font-size="12">HULU/   TV/  MOVIES/  HULU PLUS</text>
	<text transform="matrix(1 0 0 1 22.4287 75.9775)" font-family="'MyriadPro-Regular'" font-size="12">Browse/   Most Popular/  Recently Added/  Spotlight</text>
	<text transform="matrix(1 0 0 1 11.2256 96.2856)" font-family="'MyriadPro-Regular'" font-size="12">Multimedia Add Banner</text>
	<rect x="510.639" y="94.03" fill="none" width="115.79" height="19.549"/>
	<text transform="matrix(1 0 0 1 510.6387 102.5503)" font-family="'MyriadPro-Regular'" font-size="12">Content Description</text>
	<rect x="568.533" y="184.022" fill="none" stroke="#000000" stroke-width="4" width="79.7" height="25.045"/>
	<text transform="matrix(1 0 0 1 590.3154 199.5415)" font-family="'MyriadPro-Regular'" font-size="12">Access</text>
	<rect x="560.434" y="311.605" fill="none" stroke="#000000" stroke-width="4" width="79.7" height="25.046"/>
	<text transform="matrix(1 0 0 1 582.2158 327.125)" font-family="'MyriadPro-Regular'" font-size="12">Access</text>
	<text transform="matrix(1 0 0 1 133.9473 324.8574)" font-family="'MyriadPro-Regular'" font-size="12">HULU PLUS</text>
	<rect x="87.331" y="378.992" fill="none" width="113.534" height="15.038"/>
	<text transform="matrix(1 0 0 1 87.3306 387.5117)" font-family="'MyriadPro-Regular'" font-size="12">Recent Episodes (01)</text>
	<rect x="87.331" y="495.285" fill="none" width="113.534" height="15.038"/>
	<text transform="matrix(1 0 0 1 87.3306 503.8047)" font-family="'MyriadPro-Regular'" font-size="12">Recent Episodes (02)</text>
	<rect x="248.985" y="378.992" fill="none" width="113.534" height="15.038"/>
	<text transform="matrix(1 0 0 1 248.9849 387.5117)" font-family="'MyriadPro-Regular'" font-size="12">Popular Clips (01)</text>
	<rect x="248.985" y="495.285" fill="none" width="113.534" height="15.038"/>
	<text transform="matrix(1 0 0 1 248.9849 503.8047)" font-family="'MyriadPro-Regular'" font-size="12">Popular Clips (02)</text>
	<rect x="418.158" y="377.992" fill="none" width="113.533" height="15.038"/>
	<text transform="matrix(1 0 0 1 418.1582 386.5117)" font-family="'MyriadPro-Regular'" font-size="12">Featured Content(01)</text>
	<rect x="415.15" y="495.285" fill="none" width="113.533" height="15.038"/>
	<text transform="matrix(1 0 0 1 415.1504 503.8047)" font-family="'MyriadPro-Regular'" font-size="12">Featured Content(02)</text>
	<text transform="matrix(1 0 0 1 91.0898 420.3457)" font-family="'MyriadPro-Regular'" font-size="12">Text Descrption...</text>
	<text transform="matrix(1 0 0 1 248.9849 420.3457)" font-family="'MyriadPro-Regular'" font-size="12">Text Descrption...</text>
	<text transform="matrix(1 0 0 1 415.4316 420.3457)" font-family="'MyriadPro-Regular'" font-size="12">Text Descrption...</text>
	<text transform="matrix(1 0 0 1 87.3306 544.7988)" font-family="'MyriadPro-Regular'" font-size="12">Text Descrption...</text>
	<text transform="matrix(1 0 0 1 248.9849 543.7988)" font-family="'MyriadPro-Regular'" font-size="12">Text Descrption...</text>
	<text transform="matrix(1 0 0 1 415.4434 543.2773)" font-family="'MyriadPro-Regular'" font-size="12">Text Descrption...</text>
	<rect x="579.06" y="375.233" fill="none" width="181.955" height="206.767"/>
	<text transform="matrix(1 0 0 1 579.0596 383.7529)"><tspan x="0" y="0" font-family="'MyriadPro-Regular'" font-size="12">MY VIDEOS</tspan><tspan x="0" y="28.801" font-family="'MyriadPro-Regular'" font-size="12">Paragraph</tspan><tspan x="0" y="115.2" font-family="'MyriadPro-Regular'" font-size="12">Paragraph</tspan></text>
</g>
</svg>
